<svg width="24" height="24" viewBox="0 0 24 24" fill="none" xmlns="http://www.w3.org/2000/svg">
<path d="M7.65576 7.78363L11.3135 9.75552L10.6018 11.0759L6.94396 9.10399L7.65576 7.78363Z" fill="#FEE57B"/>
<path d="M17.2602 8.33029L13.8647 10.7258L13 9.50009L16.3955 7.10461L17.2602 8.33029Z" fill="#FEE57B"/>
<path d="M16.75 12.5C16.75 11.5335 17.5335 10.75 18.5 10.75C19.4665 10.75 20.25 11.5335 20.25 12.5V18.5C20.25 19.4665 19.4665 20.25 18.5 20.25C17.5335 20.25 16.75 19.4665 16.75 18.5V12.5Z" stroke="#FEBA4D" stroke-width="1.5"/>
<path d="M10.75 16C10.75 15.3096 11.3096 14.75 12 14.75C12.6904 14.75 13.25 15.3096 13.25 16V19C13.25 19.6904 12.6904 20.25 12 20.25C11.3096 20.25 10.75 19.6904 10.75 19V16Z" stroke="#57CDFF" stroke-width="1.5"/>
<path d="M13.25 11C13.25 11.6904 12.6904 12.25 12 12.25C11.3096 12.25 10.75 11.6904 10.75 11C10.75 10.3096 11.3096 9.75 12 9.75C12.6904 9.75 13.25 10.3096 13.25 11Z" stroke="#57CDFF" stroke-width="1.5"/>
<path d="M20.25 6.5C20.25 7.4665 19.4665 8.25 18.5 8.25C17.5335 8.25 16.75 7.4665 16.75 6.5C16.75 5.5335 17.5335 4.75 18.5 4.75C19.4665 4.75 20.25 5.5335 20.25 6.5Z" stroke="#FEBA4D" stroke-width="1.5"/>
<path d="M7.25 7.5C7.25 8.4665 6.4665 9.25 5.5 9.25C4.5335 9.25 3.75 8.4665 3.75 7.5C3.75 6.5335 4.5335 5.75 5.5 5.75C6.4665 5.75 7.25 6.5335 7.25 7.5Z" stroke="white" stroke-width="1.5"/>
<path d="M3.75 14.5C3.75 13.5335 4.5335 12.75 5.5 12.75C6.4665 12.75 7.25 13.5335 7.25 14.5V18.5C7.25 19.4665 6.4665 20.25 5.5 20.25C4.5335 20.25 3.75 19.4665 3.75 18.5V14.5Z" stroke="white" stroke-width="1.5"/>
</svg>
