<svg width="24" height="24" viewBox="0 0 24 24" fill="none" xmlns="http://www.w3.org/2000/svg">
<rect x="3.75" y="9.75" width="16.5" height="9.75" rx="0.75" stroke="white" stroke-width="1.5"/>
<rect x="3" y="9" width="3" height="3" rx="1.5" fill="white"/>
<rect x="3" y="17.25" width="3" height="3" rx="1.5" fill="white"/>
<rect x="5" y="13.5" width="2" height="2" rx="1" fill="#FEE57B"/>
<rect x="18" y="9" width="3" height="3" rx="1.5" fill="white"/>
<rect x="18" y="17.25" width="3" height="3" rx="1.5" fill="white"/>
<rect x="17" y="13.5" width="2" height="2" rx="1" fill="#FEE57B"/>
<path d="M14.25 14.5C14.25 16.1314 13.1383 17.25 12 17.25C10.8617 17.25 9.75 16.1314 9.75 14.5C9.75 12.8686 10.8617 11.75 12 11.75C13.1383 11.75 14.25 12.8686 14.25 14.5Z" stroke="#57CDFF" stroke-width="1.5"/>
<path d="M12.8066 7.41034C12.8066 7.82455 12.4708 8.16034 12.0566 8.16034C11.6424 8.16034 11.3066 7.82455 11.3066 7.41034L11.3066 2.91034C11.3066 2.49613 11.6424 2.16034 12.0566 2.16034C12.4708 2.16034 12.8066 2.49613 12.8066 2.91034L12.8066 7.41034Z" fill="#FEBA4D"/>
<path d="M14.5483 4.41287C14.8226 4.7309 14.7822 5.21216 14.4588 5.48006C14.1443 5.74053 13.6793 5.70151 13.4126 5.39229L11.5561 3.2396C11.2819 2.92156 11.3222 2.4403 11.6457 2.17241C11.9601 1.91194 12.4252 1.95095 12.6918 2.26017L14.5483 4.41287Z" fill="#FEBA4D"/>
<path d="M11.5051 2.28181C11.7961 1.97901 12.2791 1.97421 12.576 2.27117C12.8648 2.55989 12.8694 3.02656 12.5865 3.32097L10.6168 5.37058C10.3258 5.67339 9.84285 5.67819 9.54589 5.38123C9.25716 5.0925 9.25252 4.62583 9.53545 4.33142L11.5051 2.28181Z" fill="#FEBA4D"/>
</svg>
