<svg width="24" height="24" viewBox="0 0 24 24" fill="none" xmlns="http://www.w3.org/2000/svg">
<path d="M18.2449 8.49997L17.6523 9.87793L12.9074 7.87793L13.5 6.49997L18.2449 8.49997Z" fill="#57CDFF"/>
<path d="M13.2847 4.71843C13.4036 4.32165 13.8217 4.0964 14.2184 4.2153C14.6152 4.33421 14.8405 4.75226 14.7216 5.14904L12.6403 12.0939L11.2034 11.6633L13.2847 4.71843Z" fill="#FEBA4D"/>
<path d="M19.3292 4.48323C19.5178 4.10867 19.977 3.96161 20.3481 4.15687C20.71 4.34727 20.8526 4.79254 20.6687 5.15779L16.3275 13.7784L15 13.08L19.3292 4.48323Z" fill="#FEBA4D"/>
<path d="M16.25 15.5C16.25 17.5711 14.5711 19.25 12.5 19.25H12.4926H12.4851H12.4776H12.47H12.4623H12.4546H12.4468H12.4389H12.431H12.423H12.415H12.4068H12.3987H12.3904H12.3821H12.3738H12.3653H12.3568H12.3483H12.3397H12.331H12.3223H12.3135H12.3046H12.2957H12.2867H12.2777H12.2686H12.2594H12.2502H12.2409H12.2316H12.2222H12.2128H12.2032H12.1937H12.184H12.1744H12.1646H12.1548H12.145H12.135H12.1251H12.115H12.1049H12.0948H12.0846H12.0743H12.064H12.0537H12.0432H12.0328H12.0222H12.0116H12.001H11.9903H11.9796H11.9687H11.9579H11.947H11.936H11.925H11.9139H11.9028H11.8916H11.8804H11.8691H11.8578H11.8464H11.8349H11.8234H11.8119H11.8003H11.7886H11.777H11.7652H11.7534H11.7416H11.7297H11.7177H11.7057H11.6937H11.6816H11.6694H11.6572H11.645H11.6327H11.6204H11.608H11.5955H11.5831H11.5705H11.558H11.5453H11.5327H11.5199H11.5072H11.4944H11.4815H11.4686H11.4557H11.4427H11.4296H11.4165H11.4034H11.3902H11.377H11.3638H11.3504H11.3371H11.3237H11.3103H11.2968H11.2833H11.2697H11.2561H11.2424H11.2287H11.215H11.2012H11.1874H11.1735H11.1596H11.1457H11.1317H11.1177H11.1036H11.0895H11.0753H11.0611H11.0469H11.0326H11.0183H11.004H10.9896H10.9752H10.9607H10.9462H10.9317H10.9171H10.9025H10.8878H10.8731H10.8584H10.8436H10.8288H10.814H10.7991H10.7842H10.7692H10.7542H10.7392H10.7242H10.7091H10.6939H10.6788H10.6636H10.6484H10.6331H10.6178H10.6025H10.5871H10.5717H10.5562H10.5408H10.5253H10.5097H10.4942H10.4786H10.4629H10.4473H10.4316H10.4159H10.4001H10.3843H10.3685H10.3526H10.3368H10.3208H10.3049H10.2889H10.2729H10.2569H10.2408H10.2247H10.2086H10.1925H10.1763H10.1601H10.1438H10.1276H10.1113H10.095H10.0786H10.0622H10.0458H10.0294H10.013H9.99647H9.97996H9.96343H9.94687H9.93028H9.91367H9.89703H9.88037H9.86368H9.84697H9.83023H9.81347H9.79669H9.77988H9.76304H9.74619H9.7293H9.7124H9.69547H9.67852H9.66155H9.64456H9.62754H9.6105H9.59344H9.57636H9.55925H9.54213H9.52498H9.50781H9.49062H9.47341H9.45618H9.43893H9.42167H9.40438H9.38707H9.36974H9.35239H9.33503H9.31764H9.30024H9.28282H9.26538H9.24792H9.23044H9.21295H9.19544H9.17791H9.16037H9.1428H9.12522H9.10763H9.09002H9.07239H9.05475H9.03709H9.01942H9.00173H8.98402H8.9663H8.94857H8.93082H8.91306H8.89528H8.87749H8.85969H8.84187H8.82404H8.80619H8.78834H8.77047H8.75259H8.73469H8.71678H8.69887H8.68094H8.66299H8.64504H8.62708H8.6091H8.59112H8.57312H8.55511H8.53709H8.51907H8.50103H8.48298H8.46493H8.44686H8.42879H8.41071H8.39262H8.37452H8.35641H8.33829H8.32017H8.30204H8.2839H8.26575H8.2476H8.22944H8.21127H8.1931H8.17492H8.15673H8.13854H8.12034H8.10214H8.08393H8.06572H8.0475H8.02928H8.01105H7.99282H7.97459H7.95635H7.9381H7.91986H7.90161H7.88336H7.8651H7.84684H7.82858H7.81032H7.79205H7.77378H7.75551H7.73724H7.71897H7.7007H7.68242H7.66415H7.64587H7.62759H7.60932H7.59104H7.57276H7.55449H7.53621H7.51794H7.49966H7.48139H7.46312H7.44485H7.42658H7.40832H7.39005H7.37179H7.35353H7.33528H7.31702H7.29877H7.28053H7.26228H7.24404H7.22581H7.20758H7.18935H7.17112H7.15291H7.13469H7.11649H7.09828H7.08008H7.06189H7.04371H7.02553H7.00735H6.98919H6.97103H6.95287H6.93472H6.91659H6.89845H6.88033H6.86221H6.8441H6.826H6.80791H6.78983H6.77175H6.75369H6.73563H6.71758H6.69954H6.68152H6.6635H6.64549H6.62749H6.60951H6.59153H6.59035C6.95638 19.0149 7.28873 18.7544 7.57712 18.46C8.33168 17.6896 8.75 16.7232 8.75 15.5C8.75 13.4289 10.4289 11.75 12.5 11.75C14.5711 11.75 16.25 13.4289 16.25 15.5Z" stroke="white" stroke-width="1.5"/>
</svg>
