<svg width="24" height="24" viewBox="0 0 24 24" fill="none" xmlns="http://www.w3.org/2000/svg">
<path d="M12.4604 2.08619C12.2881 1.67967 11.7119 1.67967 11.5396 2.08618L9.19 7.63L3.18081 8.13982C2.7401 8.17721 2.5614 8.72634 2.8957 9.01594L7.46 12.97L6.08921 18.846C5.98873 19.2767 6.45584 19.6162 6.8345 19.3877L12 16.27L17.1655 19.3877C17.5442 19.6162 18.0113 19.2767 17.9108 18.846L16.54 12.97L21.1043 9.01594C21.4386 8.72634 21.2599 8.17721 20.8192 8.13982L14.81 7.63L12.4604 2.08619Z" fill="white"/>
<path d="M11.5348 4.64477C11.704 4.22842 12.2938 4.22932 12.4617 4.64618L13.3288 6.79835L13.9726 8.39712L15.6164 8.54115L17.8671 8.74235C18.3006 8.7811 18.4811 9.3167 18.1595 9.60987L16.4247 11.1914L15.1781 12.3292L15.5479 14.0288L16.0554 16.3251C16.1514 16.7595 15.6748 17.0936 15.2992 16.8551L13.411 15.6564L12 14.7346L10.589 15.6276L8.70078 16.8263C8.32517 17.0647 7.84858 16.7307 7.94458 16.2963L8.45205 14L8.82192 12.3004L7.57534 11.1626L5.84053 9.58106C5.51894 9.28789 5.69942 8.75229 6.13286 8.71354L8.38356 8.51235L10.0274 8.36831L10.6712 6.76955L11.5348 4.64477Z" fill="#006EBE"/>
<path d="M11.5348 8.14476C11.704 7.72841 12.2938 7.72931 12.4617 8.14618L12.7593 8.88477L13.1272 9.79835L14.0665 9.88066L14.8671 9.95223C15.3006 9.99097 15.4811 10.5266 15.1595 10.8197L14.5284 11.3951L13.816 12.0453L14.0274 13.0165L14.2061 13.8251C14.3021 14.2595 13.8255 14.5936 13.4499 14.3551L12.8063 13.9465L12 13.4198L11.1937 13.93L10.5501 14.3386C10.1745 14.5771 9.69789 14.2431 9.7939 13.8086L9.9726 13L10.184 12.0288L9.47162 11.3786L8.84053 10.8033C8.51894 10.5101 8.69942 9.97451 9.13286 9.93577L9.93346 9.8642L10.8728 9.78189L11.2407 8.86831L11.5348 8.14476Z" fill="#FEE57B"/>
</svg>
