<svg width="24" height="24" viewBox="0 0 24 24" fill="none" xmlns="http://www.w3.org/2000/svg">
<path d="M9.5 5H7.5C6.39543 5 5.5 5.89543 5.5 7V17.5C5.5 18.6046 6.39543 19.5 7.5 19.5H16.5C17.6046 19.5 18.5 18.6046 18.5 17.5V7C18.5 5.89543 17.6046 5 16.5 5H14.5" stroke="white" stroke-width="1.5"/>
<rect x="8.75" y="3.75" width="6.5" height="2.5" rx="1.25" stroke="#57CDFF" stroke-width="1.5"/>
<path d="M8.75002 14.7863C8.75003 14.4705 8.86957 14.1664 9.08464 13.9351L12.7358 10.0087C13.2132 9.49524 14.0197 9.47512 14.5222 9.96413C15.0088 10.4377 15.0282 11.2132 14.5658 11.7105L10.9109 15.6409C10.6743 15.8953 10.3426 16.0397 9.99532 16.0397L8.99999 16.0396C8.86193 16.0396 8.75002 15.9276 8.75002 15.7896L8.75002 14.7863Z" stroke="#FEBA4D" stroke-width="1.5"/>
</svg>
