<svg width="24" height="24" viewBox="0 0 24 24" fill="none" xmlns="http://www.w3.org/2000/svg">
<path d="M4.55502 16.5701L3.83079 16.3751L4.55502 16.5701C4.66746 16.1523 4.62238 15.7197 4.45512 15.3428L3.76959 15.647L4.45512 15.3428C4.00209 14.322 3.75 13.1914 3.75 12C3.75 7.44365 7.44365 3.75 12 3.75C16.5563 3.75 20.25 7.44365 20.25 12C20.25 16.5563 16.5563 20.25 12 20.25C10.8086 20.25 9.67802 19.9979 8.65716 19.5449L8.35294 20.2304L8.65716 19.5449C8.28027 19.3776 7.84772 19.3325 7.42993 19.445C6.35537 19.7342 4.92702 20.0321 3.89531 20.1713C3.87004 20.1748 3.85605 20.1713 3.85033 20.1693C3.84393 20.1672 3.84024 20.1645 3.83788 20.1621C3.83552 20.1597 3.83277 20.156 3.83063 20.1497C3.82871 20.1439 3.82522 20.1299 3.82863 20.1047C3.96786 19.073 4.26581 17.6446 4.55502 16.5701Z" stroke="white" stroke-width="1.5"/>
<rect x="11.25" y="7" width="1.5" height="7" rx="0.75" fill="#57CDFF"/>
<rect x="11" y="15" width="2" height="2" rx="1" fill="#FEE57B"/>
</svg>
