<svg width="24" height="24" viewBox="0 0 24 24" fill="none" xmlns="http://www.w3.org/2000/svg">
<path d="M15 3.75C15 3.33579 15.3358 3 15.75 3H19C20.1046 3 21 3.89543 21 5V8.25C21 8.66421 20.6642 9 20.25 9C19.8358 9 19.5 8.66421 19.5 8.25V5.5C19.5 4.94772 19.0523 4.5 18.5 4.5H15.75C15.3358 4.5 15 4.16421 15 3.75Z" fill="white"/>
<path d="M9 20.25C9 20.6642 8.66421 21 8.25 21L5 21C3.89543 21 3 20.1046 3 19L3 15.75C3 15.3358 3.33579 15 3.75 15C4.16421 15 4.5 15.3358 4.5 15.75L4.5 18.5C4.5 19.0523 4.94772 19.5 5.5 19.5L8.25 19.5C8.66421 19.5 9 19.8358 9 20.25Z" fill="white"/>
<path d="M20.25 15C20.6642 15 21 15.3358 21 15.75L21 19C21 20.1046 20.1046 21 19 21L15.75 21C15.3358 21 15 20.6642 15 20.25C15 19.8358 15.3358 19.5 15.75 19.5L18.5 19.5C19.0523 19.5 19.5 19.0523 19.5 18.5L19.5 15.75C19.5 15.3358 19.8358 15 20.25 15Z" fill="white"/>
<path d="M3.75 9C3.33579 9 3 8.66421 3 8.25L3 5C3 3.89543 3.89543 3 5 3L8.25 3C8.66421 3 9 3.33579 9 3.75C9 4.16421 8.66421 4.5 8.25 4.5L5.5 4.5C4.94772 4.5 4.5 4.94772 4.5 5.5L4.5 8.25C4.5 8.66421 4.16421 9 3.75 9Z" fill="white"/>
<circle cx="12" cy="9" r="2.25" stroke="#57CDFF" stroke-width="1.5"/>
<path d="M8.75 13.5C8.75 13.3619 8.86193 13.25 9 13.25H15C15.1381 13.25 15.25 13.3619 15.25 13.5V16.3407C15.25 16.4459 15.1884 16.5245 15.1155 16.5532C13.8927 17.0337 12.9364 17.2536 12.007 17.2542C11.0776 17.2549 10.1165 17.0364 8.88442 16.5529L8.61043 17.251L8.88442 16.5529C8.81163 16.5243 8.75 16.4458 8.75 16.3405V13.5Z" stroke="#FEBA4D" stroke-width="1.5"/>
</svg>
