<svg width="24" height="24" viewBox="0 0 24 24" fill="none" xmlns="http://www.w3.org/2000/svg">
<path fill-rule="evenodd" clip-rule="evenodd" d="M20.8563 16C20.8563 16.17 20.8409 16.33 20.8204 16.49L21.9049 17.315C22.0026 17.39 22.0283 17.525 21.9666 17.635L20.9386 19.365C20.8923 19.445 20.8049 19.49 20.7175 19.49C20.6867 19.49 20.6559 19.485 20.625 19.475L19.3451 18.975C19.0778 19.17 18.7899 19.34 18.4764 19.465L18.2811 20.79C18.2656 20.91 18.1577 21 18.0292 21H15.9731C15.8446 21 15.7366 20.91 15.7212 20.79L15.5259 19.465C15.2123 19.34 14.9245 19.175 14.6572 18.975L13.3772 19.475C13.3515 19.485 13.3207 19.49 13.2899 19.49C13.1973 19.49 13.11 19.445 13.0637 19.365L12.0356 17.635C11.974 17.525 11.9997 17.39 12.0973 17.315L13.1819 16.49C13.1614 16.33 13.1459 16.165 13.1459 16C13.1459 15.835 13.1614 15.67 13.1819 15.51L12.0973 14.685C11.9997 14.61 11.9688 14.475 12.0356 14.365L13.0637 12.635C13.11 12.555 13.1973 12.51 13.2847 12.51C13.3156 12.51 13.3464 12.515 13.3772 12.525L14.6572 13.025C14.9245 12.83 15.2123 12.66 15.5259 12.535L15.7212 11.21C15.7366 11.09 15.8446 11 15.9731 11H18.0292C18.1577 11 18.2656 11.09 18.2811 11.21L18.4764 12.535C18.7899 12.66 19.0778 12.825 19.3451 13.025L20.625 12.525C20.6507 12.515 20.6816 12.51 20.7124 12.51C20.8049 12.51 20.8923 12.555 20.9386 12.635L21.9666 14.365C22.0283 14.475 22.0026 14.61 21.9049 14.685L20.8204 15.51C20.8409 15.67 20.8563 15.83 20.8563 16ZM17 17.5C17.8284 17.5 18.5 16.8284 18.5 16C18.5 15.1716 17.8284 14.5 17 14.5C16.1716 14.5 15.5 15.1716 15.5 16C15.5 16.8284 16.1716 17.5 17 17.5Z" fill="#FEBA4D"/>
<path d="M3 7H4.5V16.5C4.5 17.0523 4.94772 17.5 5.5 17.5H11V19H5C3.89543 19 3 18.1046 3 17V7Z" fill="white"/>
<path d="M18.5 7H20V10H18.5V7Z" fill="white"/>
<path fill-rule="evenodd" clip-rule="evenodd" d="M3 5C3 3.89543 3.89543 3 5 3H18C19.1046 3 20 3.89543 20 5V7H3V5Z" fill="white"/>
<path d="M5.25 5.75C4.83579 5.75 4.5 5.41421 4.5 5C4.5 4.58579 4.83579 4.25 5.25 4.25C5.66421 4.25 6 4.58579 6 5C6 5.41421 5.66421 5.75 5.25 5.75Z" fill="#57CDFF"/>
<path d="M7.5 5.75C7.08579 5.75 6.75 5.41421 6.75 5C6.75 4.58579 7.08579 4.25 7.5 4.25C7.91421 4.25 8.25 4.58579 8.25 5C8.25 5.41421 7.91421 5.75 7.5 5.75Z" fill="#57CDFF"/>
</svg>
