<svg width="24" height="24" viewBox="0 0 24 24" fill="none" xmlns="http://www.w3.org/2000/svg">
<path d="M5 3.75H6.5V6V6.75H7.25H19C19.6904 6.75 20.25 7.30964 20.25 8V19C20.25 19.6904 19.6904 20.25 19 20.25H5C4.30964 20.25 3.75 19.6904 3.75 19V5C3.75 4.30964 4.30964 3.75 5 3.75Z" stroke="white" stroke-width="1.5"/>
<path d="M3.75 5C3.75 4.30964 4.30964 3.75 5 3.75H6.5V16C6.5 16.6904 5.94036 17.25 5.25 17.25H3.75V5Z" stroke="white" stroke-width="1.5"/>
<rect x="9" y="16" width="9" height="1.25" rx="0.625" fill="#FEBA4D"/>
<path d="M9 13.334C9 13.1253 9.10428 12.9305 9.27788 12.8147L11.3179 11.4547C11.7145 11.1903 12.2426 11.2426 12.5797 11.5797L13.2929 12.2929C13.6834 12.6834 14.3166 12.6834 14.7071 12.2929L16.0947 10.9053C16.4288 10.5712 17 10.8079 17 11.2803C17 11.421 16.9441 11.5559 16.8447 11.6553L14.7071 13.7929C14.3166 14.1834 13.6834 14.1834 13.2929 13.7929L12.5797 13.0797C12.2426 12.7426 11.7145 12.6903 11.3179 12.9547L9.97019 13.8532C9.55548 14.1297 9 13.8324 9 13.334Z" fill="#57CDFF"/>
<path d="M17.8172 9.85499C17.9862 9.83255 18.1276 9.98218 18.0956 10.1497L17.6337 12.5709C17.5955 12.7712 17.3465 12.844 17.2064 12.6958L15.2249 10.599C15.0848 10.4508 15.1716 10.2063 15.3737 10.1795L17.8172 9.85499Z" fill="#57CDFF"/>
</svg>
