<svg width="24" height="24" viewBox="0 0 24 24" fill="none" xmlns="http://www.w3.org/2000/svg">
<path d="M7 15.75H11V17.25H7V15.75Z" fill="white"/>
<path d="M18.5 14L17.4713 14.5288L18.7699 15.75H14.5V17.25H18.7699L17.5 18.5L18.5 19L21 16.5L18.5 14Z" fill="white"/>
<path d="M19 8C18 8 17.7128 7.615 17.7128 7.25C17.7128 6.83 17.872 6.52 18.5328 6.52C19.2289 6.52 19.4798 6.76 19.5 7.25H20.3232C20.3232 5.93594 19.5 5.5 19.1179 5.51598V5H17.9426V5.51598C17.181 5.67598 16.5706 6.495 16.5706 7.25C16.5706 8.145 17.4735 9 18.5 9C19.123 9 19.5 9.14 19.5 9.5C19.5 10 18.9336 10 18.5 10C18.0664 10 17.5 10 17.4735 9.5H16.5C16.5504 10.35 17.186 10.995 17.9426 11.15V12H19.123V11.165C19.8897 11.02 20.6866 10.595 20.6917 9.79C20.6917 8.38806 19.5 8 19 8Z" fill="#FEE57B"/>
<path d="M12.3083 8C11.3083 8 11.0212 7.615 11.0212 7.25C11.0212 6.83 11.1804 6.52 11.8411 6.52C12.5372 6.52 12.7882 6.76 12.8083 7.25H13.6316C13.6316 5.93594 12.8083 5.5 12.4263 5.51598V5H11.251V5.51598C10.4893 5.67598 9.87897 6.495 9.87897 7.25C9.87897 8.145 10.7819 9 11.8083 9C12.4313 9 12.8083 9.14 12.8083 9.5C12.8083 10 12.2419 10 11.8083 10C11.3748 10 10.8083 10 10.7819 9.5H9.80835C9.85879 10.35 10.4944 10.995 11.251 11.15V12H12.4313V11.165C13.198 11.02 13.995 10.595 14 9.79C14 8.38806 12.8083 8 12.3083 8Z" fill="#57CDFF"/>
<path d="M5.5 8C4.5 8 4.21282 7.615 4.21282 7.25C4.21282 6.83 4.372 6.52 5.03279 6.52C5.72888 6.52 5.97982 6.76 6 7.25H6.82325C6.82325 5.93594 6 5.5 5.61791 5.51598V5H4.44262V5.51598C3.68096 5.67598 3.07062 6.495 3.07062 7.25C3.07062 8.145 3.97352 9 5 9C5.62295 9 6 9.14 6 9.5C6 10 5.43359 10 5 10C4.56641 10 4 10 3.97352 9.5H3C3.05044 10.35 3.686 10.995 4.44262 11.15V12H5.62295V11.165C6.38966 11.02 7.18662 10.595 7.19167 9.79C7.19167 8.38806 6 8 5.5 8Z" fill="#FEBA4D"/>
<path d="M7.25 16.5C7.25 17.4665 6.4665 18.25 5.5 18.25C4.5335 18.25 3.75 17.4665 3.75 16.5C3.75 15.5335 4.5335 14.75 5.5 14.75C6.4665 14.75 7.25 15.5335 7.25 16.5ZM14.25 16.5C14.25 17.4665 13.4665 18.25 12.5 18.25C11.5335 18.25 10.75 17.4665 10.75 16.5C10.75 15.5335 11.5335 14.75 12.5 14.75C13.4665 14.75 14.25 15.5335 14.25 16.5Z" stroke="white" stroke-width="1.5"/>
</svg>
