<svg width="24" height="24" viewBox="0 0 24 24" fill="none" xmlns="http://www.w3.org/2000/svg">
<path d="M3 6C3 4.89543 3.89543 4 5 4H8.2759C8.74377 4 9.19684 4.16403 9.55627 4.46356L12 6.5L11 7.5L9.04783 5.93826C8.6932 5.65456 8.25258 5.5 7.79844 5.5H5.5C4.94772 5.5 4.5 5.94772 4.5 6.5V9H3V6Z" fill="#FEE57B"/>
<path d="M13.25 13.5C13.25 13.3619 13.3619 13.25 13.5 13.25H20C20.1381 13.25 20.25 13.3619 20.25 13.5V18.5C20.25 18.6381 20.1381 18.75 20 18.75H15.7361C15.4644 18.75 15.1964 18.8133 14.9534 18.9348L13.25 19.7865V13.5Z" stroke="#57CDFF" stroke-width="1.5"/>
<path d="M5.50002 10C4.94773 10 4.50002 10.4477 4.50002 11V16C4.50002 16.5523 4.94773 17 5.50002 17H10.25C10.6642 17 11 17.3358 11 17.75C11 18.1642 10.6642 18.5 10.25 18.5H5.00002C3.89545 18.5 3.00002 17.6046 3.00002 16.5V8.5H7.39446C7.78931 8.5 8.17533 8.38312 8.50386 8.1641L10.4962 6.8359C10.8247 6.61688 11.2107 6.5 11.6056 6.5H18.5C19.6046 6.5 20.5 7.39543 20.5 8.5V11.5H19V9C19 8.44772 18.5523 8 18 8H12.6056C12.2107 8 11.8247 8.11688 11.4962 8.3359L9.50386 9.6641C9.17533 9.88312 8.78931 10 8.39446 10H5.50002Z" fill="white"/>
</svg>
